<svg xmlns="http://www.w3.org/2000/svg" width="152" height="126" fill="none" viewBox="0 0 152 126">
  <path fill="#FDF87E" stroke="#000" d="M1 125 76 1l75 124H1Z"/>
  <path fill="#FDF87E" stroke="#000" d="m22.573 115.82 52.946-96.392 52.946 96.392H22.573Z"/>
  <path fill="#000" d="M75.519 105.111c4.52 0 8.184-3.425 8.184-7.65 0-4.225-3.664-7.65-8.184-7.65s-8.185 3.425-8.185 7.65c0 4.225 3.665 7.65 8.185 7.65Zm0-21.419c5.051 0 9.147-9.362 9.147-20.91 0-11.547-4.096-20.909-9.147-20.909-5.052 0-9.147 9.361-9.147 20.91 0 11.547 4.095 20.909 9.147 20.909Z"/>
</svg>
